<svg xmlns="http://www.w3.org/2000/svg" xmlns:svg="http://www.w3.org/2000/svg" id="svg2" width="195.816" height="131.246" version="1.1"><metadata id="metadata7"/><g id="layer1" transform="translate(-87.778474,-79.89161)"><g id="g3308"><path id="path3213" d="m 229.03885,140.36372 c 0,0 -8.11688,2.35257 -23.845,12.01832 -14.1287,8.68639 -19.66415,14.5199 -19.66415,14.5199 l -43.51448,-30.07505 c 0,0 18.30956,-13.46604 33.61188,-3.15095 l 20.52108,14.07813 2.49893,-1.64997 -56.63189,-39.66896 c 0,0 8.1435,-2.35255 23.87428,-12.020963 14.12871,-8.686393 19.6402,-14.522567 19.6402,-14.522567 l 43.53577,30.07771 c 0,0 -18.30957,13.46871 -33.61188,3.15095 l -20.51842,-14.075475 -2.49894,1.642005 56.60262,39.67692" style="fill:#e31b31;stroke:none"/><g id="g3300"><path style="fill:#005d9b;stroke:none" id="path3215" d="m 195.34714,181.39524 -33.1302,0 0,7.36374 15.99425,0 -16.55577,15.46731 0,6.1715 33.63849,0 0,-7.39568 -16.73941,0 16.79264,-15.4274 0,-6.17947"/><path style="fill:#005d9b;stroke:none" id="path3217" d="m 142.70982,211.13762 c 13.25047,0 16.6569,-3.38247 16.6569,-10.84203 l 0,-18.90035 -10.51203,0 0,17.76931 c 0,2.98595 -2.55482,4.76368 -6.14487,4.76368 -3.72845,0 -6.12359,-1.78571 -6.12359,-4.80892 l 0,-17.72407 -10.50938,0 0,18.90035 c 0,7.45956 3.40377,10.84203 16.63297,10.84203"/><path style="fill:#005d9b;stroke:none" id="path3219" d="m 214.56419,211.13762 c 13.25048,0 16.6569,-3.38247 16.6569,-10.84203 l 0,-18.90035 -10.51202,0 0,17.76931 c 0,2.98595 -2.55482,4.76368 -6.14488,4.76368 -3.72844,0 -6.12359,-1.78571 -6.12359,-4.80892 l 0,-17.72407 -10.50936,0 0,18.90035 c 0,7.45956 3.40377,10.84203 16.63295,10.84203"/><path style="fill:#005d9b;stroke:none" id="path3221" d="m 283.59495,181.39524 -10.93517,0 0,29.00255 10.93517,0 0,-29.00255"/><path style="fill:#005d9b;stroke:none" id="path3223" d="m 271.0098,181.39524 -14.42677,0 -11.6271,10.00638 0,-10.00638 -10.96711,0 0,29.00255 10.96711,0 0,-10.28583 10.8021,10.28583 14.71685,0 -16.02087,-14.88184 16.55579,-14.12071"/><path style="fill:#005d9b;stroke:none" id="path3225" d="m 100.20662,189.41099 c 0,-2.24079 3.32659,-2.3153 4.44433,-2.3153 1.14435,0 3.67522,0.44974 5.37577,3.2707 l 12.37492,0 c 0,-5.45828 -5.16288,-9.80679 -17.69747,-9.80679 -13.945069,0 -16.310942,6.11027 -16.310942,9.61783 0,6.47222 5.027146,8.36705 15.911752,9.52736 0.93411,0.0985 6.59996,-0.16766 6.59996,2.55749 0,2.02256 -3.19353,2.15562 -4.33521,2.15562 -1.17362,0 -3.35321,-0.19161 -5.16553,-3.39578 l -13.625726,0 c 0,6.36311 4.28465,10.04631 18.764646,10.04631 13.30636,0 16.8432,-5.43698 16.8432,-9.57526 0,-4.01319 -2.73846,-8.0956 -14.10476,-9.54865 -4.7344,-0.61475 -9.07494,-0.8729 -9.07494,-2.53353"/></g></g></g></svg>